<?xml version="1.0" encoding="UTF-8"?>
<svg xmlns="http://www.w3.org/2000/svg" xmlns:xlink="http://www.w3.org/1999/xlink" width="30pt" height="30pt" viewBox="0 0 30 30" version="1.1">
<g id="surface9105571">
<path style=" stroke:none;fill-rule:nonzero;fill:rgb(0%,0%,0%);fill-opacity:1;" d="M 0 15 C 0 6.714844 6.714844 0 15 0 C 23.285156 0 30 6.714844 30 15 C 30 23.285156 23.285156 30 15 30 C 6.714844 30 0 23.285156 0 15 Z M 15 29.398438 C 22.953125 29.398438 29.398438 22.953125 29.398438 15 C 29.398438 7.046875 22.953125 0.601562 15 0.601562 C 7.046875 0.601562 0.601562 7.046875 0.601562 15 C 0.601562 22.953125 7.046875 29.398438 15 29.398438 Z M 15 29.398438 "/>
<path style=" stroke:none;fill-rule:nonzero;fill:rgb(0%,0%,0%);fill-opacity:1;" d="M 21.183594 5.519531 C 20.78125 5.519531 20.375 5.675781 20.066406 5.984375 L 18.160156 7.890625 L 22.109375 11.839844 L 24.015625 9.933594 C 24.632812 9.316406 24.632812 8.316406 24.015625 7.699219 L 22.300781 5.984375 C 21.992188 5.675781 21.589844 5.519531 21.183594 5.519531 Z M 16.578125 9.46875 L 7.304688 18.746094 C 7.304688 18.746094 8.03125 18.679688 8.300781 18.949219 C 8.570312 19.21875 8.347656 20.988281 8.679688 21.320312 C 9.011719 21.652344 10.769531 21.417969 11.019531 21.671875 C 11.273438 21.921875 11.253906 22.695312 11.253906 22.695312 L 20.53125 13.421875 Z M 6.308594 21.320312 L 5.566406 23.429688 C 5.535156 23.515625 5.519531 23.601562 5.519531 23.691406 C 5.519531 24.125 5.875 24.480469 6.308594 24.480469 C 6.398438 24.480469 6.484375 24.464844 6.570312 24.433594 C 6.570312 24.433594 6.574219 24.433594 6.578125 24.433594 L 6.597656 24.425781 C 6.597656 24.425781 6.601562 24.425781 6.601562 24.421875 L 8.679688 23.691406 L 7.496094 22.503906 Z M 6.308594 21.320312 "/>
</g>
</svg>
